<svg viewBox="0 0 24 24" fill="none" xmlns="http://www.w3.org/2000/svg">
    <path
        d="M20 5C20 4.44771 19.5523 4 19 4H5C4.44771 4 4 4.44771 4 5V19C4 19.5523 4.44771 20 5 20H19C19.5523 20 20 19.5523 20 19V5ZM22 19C22 20.6569 20.6569 22 19 22H5C3.34315 22 2 20.6569 2 19V5C2 3.34315 3.34315 2 5 2H19C20.6569 2 22 3.34315 22 5V19Z"
        fill="currentColor" />
    <path
        d="M17 6C17.5523 6 18 6.44772 18 7V17C18 17.5523 17.5523 18 17 18H15C14.4477 18 14 17.5523 14 17V7C14 6.44772 14.4477 6 15 6H17Z"
        fill="currentColor" />
</svg>